<svg width="150" height="33" viewBox="0 0 150 33" fill="none" xmlns="http://www.w3.org/2000/svg">
<path d="M96.9044 15.856C96.9044 15.856 96.8466 7.80698 104.977 5.79959C109.102 4.8585 112.124 6.67054 112.747 7.08821C112.826 7.14109 112.829 7.19829 112.763 7.25225C112.391 7.5566 111.097 8.71031 110.285 10.6216C110.261 10.6648 110.248 10.6788 110.196 10.6497C108.009 9.6363 105.893 9.81006 104.106 10.8947C103.01 11.5595 101.088 13.3608 101.088 16.3988C101.088 19.6981 101.075 25.4494 101.075 26.888C101.075 27.2182 101.048 27.2225 100.78 27.2225C100.548 27.2225 97.8239 27.2333 97.0862 27.2333C96.9033 27.2333 96.9033 27.2161 96.9033 27.0294C96.9033 26.8427 96.9033 15.8549 96.9033 15.8549L96.9044 15.856Z" fill="#3353FF"/>
<path d="M40.3595 15.4968C40.2418 14.2028 39.9349 12.9563 39.3306 11.8166C37.5797 8.5141 34.9293 6.51534 31.2488 6.06422C29.9268 5.90233 28.6141 5.98004 27.3215 6.31245C24.7351 6.97834 22.7341 8.51086 21.2302 10.7427C20.2339 12.2213 19.7053 13.8769 19.5592 15.6684C19.4604 16.8912 19.5203 18.1021 19.7957 19.2946C20.4641 22.1816 22.0888 24.3714 24.5239 25.9169C26.7424 27.3242 29.1795 27.6717 31.7281 27.281C33.6755 26.9821 35.3675 26.1101 36.8388 24.774C36.8872 24.7297 36.9229 24.6984 36.946 24.6725C37.0164 24.5959 36.9786 24.5732 36.8724 24.4297C36.0201 23.2663 34.3018 20.893 34.0181 20.5606C33.9992 20.5379 33.9582 20.5476 33.9466 20.5606C32.1947 22.4622 29.7565 22.6414 27.9825 21.9204C26.2716 21.2265 25.1775 19.9443 24.6731 18.0978C24.7992 18.0978 24.8917 18.0978 24.9831 18.0978H39.9612C40.02 18.0978 40.0789 18.0978 40.1377 18.0978C40.2646 18.0949 40.3346 18.0291 40.3479 17.9003C40.4299 17.0995 40.431 16.2987 40.3574 15.4968H40.3595ZM25.0504 14.397C25.0556 14.2794 25.1229 14.1985 25.1691 14.11C25.621 13.2336 26.218 12.4889 27.043 11.9536C27.7387 11.5025 28.5017 11.2662 29.3162 11.1809C30.1538 11.0935 30.9788 11.1561 31.7817 11.4173C33.0449 11.8285 33.9592 12.6789 34.6203 13.838C34.7096 13.9945 34.7895 14.1553 34.8715 14.3161C34.882 14.3366 34.8809 14.3625 34.8872 14.397H25.0504Z" fill="#1D1D1B"/>
<path d="M4.24417 7.22013C4.7192 6.93413 5.15534 6.69561 5.6104 6.4938C6.88835 5.92719 8.22305 5.61314 9.6124 5.54622C11.4558 5.45772 13.1751 5.93151 14.7873 6.81325C15.9338 7.44137 16.7819 8.40405 17.4609 9.53294C18.1555 10.6888 18.5622 11.9472 18.7661 13.2822C18.9185 14.2816 18.9742 15.2875 18.9732 16.2998C18.969 19.8473 18.9721 23.3958 18.9711 26.9433C18.9711 27.3037 19.011 27.253 18.6589 27.253C17.4567 27.2552 16.2554 27.253 15.0531 27.253C14.9943 27.253 14.9354 27.2509 14.8766 27.253C14.8009 27.2552 14.7715 27.2152 14.7736 27.1418C14.7746 27.0987 14.7736 27.0555 14.7736 27.0123C14.7725 26.3044 14.7851 15.8271 14.7925 15.1795C14.8093 13.5736 14.1619 12.2753 13.0763 11.1766C12.5855 10.6791 11.9634 10.4147 11.3118 10.2204C10.8515 10.0834 9.66074 9.92363 9.00285 10.01C8.45951 10.0812 7.92668 10.1967 7.41487 10.3974C5.90571 10.9899 4.97878 12.1231 4.54579 13.6999C4.32089 14.519 4.24627 15.3619 4.24522 16.2091C4.24102 19.7825 4.24312 23.3569 4.24312 26.9303C4.24312 26.9389 4.24312 26.9476 4.24312 26.9562C4.23997 27.2897 4.2778 27.2508 3.96672 27.2519C3.10074 27.253 2.23581 27.2519 1.36984 27.2519C0.974681 27.2519 0.579526 27.2476 0.18437 27.2541C0.0530022 27.2562 -0.00164697 27.212 0.0120153 27.0771C0.018321 27.0177 0.0120153 26.9562 0.0120153 26.8958C0.0120153 20.4311 0.00570964 2.7348 0.0046587 0.351833C0.0046587 0.291395 0.0120153 0.229878 0.00360775 0.17052C-0.0174111 0.0248226 0.0551041 0 0.177014 0C1.47178 0.00323772 2.76549 0.00107924 4.06026 0.00215848C4.23576 0.00215848 4.23892 0.00647546 4.23997 0.186709C4.24102 1.12781 4.23997 2.06891 4.23997 3.01C4.23997 4.31373 4.24207 5.61745 4.24312 6.9201C4.24312 7.00428 4.24312 7.08846 4.24312 7.21905L4.24417 7.22013Z" fill="#1D1D1B"/>
<path d="M41.2664 0.271037C41.2664 0.219233 41.2685 0.167429 41.2664 0.115626C41.2633 0.041158 41.2927 0.00230531 41.3684 0.00338456C41.4188 0.00338456 41.4692 0.00338456 41.5197 0.00338456C42.764 0.00338456 44.0073 0.00338456 45.2516 0.00338456C45.2852 0.00338456 45.3189 0.00662228 45.3525 0.00338456C45.4576 -0.00740786 45.5049 0.0314448 45.4996 0.148003C45.4923 0.303414 45.4975 0.458825 45.4975 0.614235C45.4965 4.61175 45.4849 26.2894 45.4828 27.006C45.4828 27.251 45.4818 27.2532 45.2579 27.2532C43.9968 27.2532 42.7367 27.2532 41.4756 27.2532C41.2591 27.2532 41.257 27.251 41.257 27.0265C41.257 25.2566 41.2654 1.95573 41.2664 0.272116V0.271037Z" fill="#1D1D1B"/>
<path d="M135.205 11.6355C135.194 10.3857 135.531 9.25359 136.176 8.20996C136.95 6.96128 138.084 6.222 139.444 5.81512C139.947 5.66511 140.462 5.58956 140.986 5.59604C141.297 5.60035 141.608 5.59928 141.919 5.59604C142.024 5.59496 142.068 5.62626 142.067 5.74174C142.062 6.42382 142.061 7.1059 142.067 7.78798C142.068 7.91965 142.017 7.94771 141.904 7.94555C141.584 7.94015 141.265 7.94663 140.945 7.94339C139.133 7.9218 137.676 9.46296 137.514 11.166C137.496 11.357 137.499 13.7022 137.495 14.6865C137.495 14.7469 137.495 14.8074 137.495 14.8678C137.495 14.939 137.522 14.9822 137.599 14.9811C137.658 14.9811 137.717 14.9811 137.776 14.9811C138.726 14.9811 139.676 14.9811 140.625 14.9811C140.667 14.9811 140.709 14.9811 140.751 14.9811C140.937 14.9854 140.941 14.9919 140.937 15.1905C140.932 15.415 140.927 15.6395 140.924 15.8629C140.92 16.2859 140.919 16.709 140.915 17.1321C140.913 17.3414 140.912 17.3425 140.708 17.3447C140.657 17.3447 140.607 17.3447 140.556 17.3447C139.615 17.3447 138.673 17.3447 137.732 17.3447C137.497 17.3447 137.497 17.3468 137.495 17.5821C137.495 17.7202 137.503 23.6075 137.508 26.4135C137.508 26.7816 137.529 26.7265 137.194 26.7276C136.614 26.7297 136.034 26.7276 135.454 26.7276C135.193 26.7276 135.209 26.7427 135.209 26.474C135.209 26.3272 135.223 14.0249 135.204 11.6333L135.205 11.6355Z" fill="#3353FF"/>
<path d="M140.663 23.5209C140.663 22.5798 140.634 21.6377 140.67 20.6976C140.738 18.878 141.425 17.3466 142.83 16.2102C143.763 15.4558 144.843 15.0478 146.035 14.9712C147.385 14.8848 148.606 15.2701 149.724 16.0342C149.779 16.072 149.833 16.1141 149.886 16.1573C150.029 16.2738 150.031 16.276 149.925 16.4163C149.519 16.9559 149.111 17.4934 148.704 18.0319C148.57 18.21 148.577 18.1733 148.431 18.0643C147.799 17.5948 147.095 17.3541 146.312 17.3628C144.707 17.379 143.325 18.5651 143.026 20.1828C142.979 20.4386 142.963 20.6955 142.963 20.9556C142.963 22.786 142.963 24.6164 142.963 26.4468C142.963 26.7576 142.984 26.7306 142.696 26.7306C142.091 26.7306 141.485 26.7306 140.88 26.7306C140.665 26.7306 140.663 26.7284 140.663 26.5007C140.663 25.5078 140.663 24.5149 140.663 23.522V23.5209Z" fill="#3353FF"/>
<path d="M133.121 25.5153C133.121 25.851 133.123 26.1866 133.121 26.5223C133.12 26.7241 133.117 26.7273 132.931 26.7284C132.294 26.7295 131.656 26.7295 131.019 26.7284C130.828 26.7284 130.825 26.7252 130.824 26.5298C130.822 25.8499 130.826 25.1689 130.821 24.489C130.821 24.3627 130.848 24.3055 130.986 24.3066C131.64 24.3131 132.294 24.3131 132.949 24.3066C133.079 24.3055 133.126 24.3454 133.123 24.4814C133.117 24.8257 133.121 25.17 133.121 25.5143V25.5153Z" fill="#3353FF"/>
<path d="M63.7239 5.56552C57.7356 5.53746 53.225 10.175 53.1094 16.3838C53.1987 22.6812 57.8313 27.2183 63.6504 27.2356C69.482 27.254 74.1619 22.6931 74.267 16.4259C74.1924 10.3994 69.77 5.59358 63.7239 5.56552ZM63.6819 22.8625C60.4765 22.8388 57.3962 20.3177 57.4035 16.3795C57.4098 12.8169 60.0015 9.93429 63.6966 9.93861C67.3707 9.94292 69.9749 12.8094 69.9749 16.3957C69.9749 20.2292 66.9997 22.8453 63.6829 22.8625H63.6819Z" fill="#1D1D1B"/>
<path d="M121.121 5.56552C115.133 5.53746 110.622 10.175 110.507 16.3838C110.596 22.6812 115.229 27.2183 121.048 27.2356C126.879 27.254 131.559 22.6931 131.664 16.4259C131.59 10.3994 127.167 5.59358 121.121 5.56552ZM121.079 22.8625C117.874 22.8388 114.793 20.3177 114.801 16.3795C114.807 12.8169 117.399 9.93429 121.094 9.93861C124.768 9.94292 127.372 12.8094 127.372 16.3957C127.372 20.2292 124.397 22.8453 121.08 22.8625H121.079Z" fill="#3353FF"/>
<path d="M95.8807 14.3247C94.2024 4.46264 80.7303 2.38833 76.2102 11.2424C75.4136 12.8127 74.9459 14.4748 74.9428 16.2512C74.9333 21.4823 74.9396 26.4846 74.9396 31.7146C74.9396 32.0826 74.9375 32.0826 75.298 32.0826C76.4835 32.0826 77.6679 32.0826 78.8533 32.0826C79.197 32.0826 79.1655 32.1258 79.1655 31.7675C79.1917 29.5788 79.115 27.376 79.1938 25.196C87.0244 30.8836 97.7409 24.1016 95.8818 14.3247H95.8807ZM85.509 22.8626C82.3036 22.8389 79.2233 20.3178 79.2306 16.3796C79.2369 12.817 81.8286 9.93439 85.5237 9.93871C89.1978 9.94303 91.802 12.8095 91.802 16.3958C91.802 20.2293 88.8268 22.8454 85.51 22.8626H85.509Z" fill="#3353FF"/>
<path d="M47.9334 0.170638C47.9135 0.0281778 47.9818 0.000117515 48.1068 0.00119676C49.4016 0.00443448 50.6953 0.00551372 51.9901 0.00119676C52.1246 0.00119676 52.1593 0.0465249 52.1582 0.178192C52.1519 1.67186 52.1393 27.0448 52.1456 27.0869C52.1635 27.2294 52.0941 27.2574 51.9701 27.2564C50.6753 27.2531 49.3816 27.2531 48.0869 27.2564C47.9576 27.2564 47.8998 27.2175 47.9135 27.0804C47.9208 27.0124 47.9145 26.9423 47.9145 26.8732C47.9145 22.4613 47.9345 0.171717 47.9345 0.171717L47.9334 0.170638Z" fill="#1D1D1B"/>
</svg>
